{"title":"The Thing 2011 480p RC BDRip LiNE XViD AC3 5.1 - SiC","uid":6857955,"size":2016324962,"categoryP":"video","categoryS":"movies","magnet":"?xt=urn:btih:ee1d00f9f6e5b11551bf4c57324ab1c1944bf242&amp;dn=The+Thing+2011+480p+RC+BDRip+LiNE+XViD+AC3+5.1+-+SiC&amp;tr=udp%3A%2F%2Ftracker.openbittorrent.com%3A80&amp;tr=udp%3A%2F%2Fopen.demonii.com%3A1337&amp;tr=udp%3A%2F%2Ftracker.coppersurfer.tk%3A6969&amp;tr=udp%3A%2F%2Fexodus.desync.com%3A6969","seeders":0,"leechers":1,"uploader":"sceneline","files":5,"time":1322772272,"description":"- &lt;a href=&quot;\nhttp://www.Speed.Cd&quot; rel=&quot;nofollow&quot; target=&quot;_NEW&quot;&gt;\nhttp://www.Speed.Cd&lt;/a&gt;      fast  and The Hottest Private Tracker on the net\n\n   signup is open now\n\nPlease Seed back to make the speed Faster!!!\n\n------------------nfo--------------------------\n-\n\n\n\n\n\n\n\n\n\n\n\n\n\n\n\n\n\n\n\n\n\n\n\n\n\n\n\n\n\n\n\n\n\n\n\n\n\n\n\n\n          \n          \n              \n              \n                    \n                    \n                    \n                    \n\nThe Thing 2011 480p RC BDRip LiNE XViD AC3 5.1 - SiC\n\nPoster:\n\nIMDB Link: &lt;a href=&quot;\nhttp://www.imdb.com/title/tt0905372/&quot; rel=&quot;nofollow&quot; target=&quot;_NEW&quot;&gt;\nhttp://www.imdb.com/title/tt0905372/&lt;/a&gt;\n\nDescription:\nAt an Antarctica research site, the discovery of an alien craft leads to a confrontation \nbetween graduate student Kate Lloyd and scientist Dr. Sander Halvorson. \n\nMediaInfo:\nGeneral\nFormat                           : AVI\nFormat/Info                      : Audio Video Interleave\nFile size                        : 1.85 GiB\nDuration                         : 1h 43mn\nOverall bit rate                 : 2 572 Kbps\nWriting application              : VirtualDubMod 1.5.10.2 (build 2540/release)\nWriting library                  : VirtualDub build 32842/release\n\nVideo\nID                               : 0\nFormat                           : MPEG-4 Visual\nFormat profile                   : Advanced Simple@L5\nFormat settings, BVOP            : 2\nFormat settings, QPel            : No\nFormat settings, GMC             : No warppoints\nFormat settings, Matrix          : Default (H.263)\nMuxing mode                      : Packed bitstream\nCodec ID                         : XVID\nCodec ID/Hint                    : XviD\nDuration                         : 1h 43mn\nBit rate                         : 2 114 Kbps\nWidth                            : 720 pixels\nHeight                           : 304 pixels\nDisplay aspect ratio             : 2.35:1\nFrame rate                       : 23.976 fps\nColor space                      : YUV\nChroma subsampling               : 4:2:0\nBit depth                        : 8 bits\nScan type                        : Progressive\nCompression mode                 : Lossy\nBits/(Pixel*Frame)               : 0.403\nStream size                      : 1.52 GiB (82%)\nWriting library                  : XviD 64\n\nAudio\nID                               : 1\nFormat                           : AC-3\nFormat/Info                      : Audio Coding 3\nMode extension                   : CM (complete main)\nCodec ID                         : 2000\nDuration                         : 1h 43mn\nBit rate mode                    : Constant\nBit rate                         : 448 Kbps\nChannel(s)                       : 6 channels\nChannel positions                : Front: L C R, Side: L R, LFE\nSampling rate                    : 48.0 KHz\nBit depth                        : 16 bits\nCompression mode                 : Lossy\nStream size                      : 330 MiB (17%)\nAlignment                        : Split accross interleaves\nInterleave, duration             : 42 ms (1.00 video frame)\nInterleave, preload duration     : 500 ms\n\nScreenshots:\n\nNote : \nOk got the Russian bluray filtered and encode... got HiVE-CM8 audio\nand then muxed to new video also hardcoded the needed subs =P \nMade this release bigger than a normal size 480p rip as its full of \ndark scenes and needs abit extra bitrat eto for better viewing =D\ngreat video and audio quality so have fun =)\n\nSource: \nVideo: Russian Bluray [Thanks!]\nAudio: HiVE-CM8 [Thanks!]\n\nEnjoy!\n\nRespects to T00NG0D, ELEKTRI4KA, PA, YeFsTe, Box, MrRep and everyone in the struggle...","torrent":{"xt":"urn:btih:ee1d00f9f6e5b11551bf4c57324ab1c1944bf242","amp;dn":"The+Thing+2011+480p+RC+BDRip+LiNE+XViD+AC3+5.1+-+SiC","amp;tr":["udp%3A%2F%2Ftracker.openbittorrent.com%3A80","udp%3A%2F%2Fopen.demonii.com%3A1337","udp%3A%2F%2Ftracker.coppersurfer.tk%3A6969","udp%3A%2F%2Fexodus.desync.com%3A6969"],"infoHash":"ee1d00f9f6e5b11551bf4c57324ab1c1944bf242","infoHashBuffer":{"type":"Buffer","data":[238,29,0,249,246,229,177,21,81,191,76,87,50,74,177,193,148,75,242,66]},"announce":[],"urlList":[]}}